<svg width="25" height="24" viewBox="0 0 25 24" fill="none" xmlns="http://www.w3.org/2000/svg">
<path fill-rule="evenodd" clip-rule="evenodd" d="M21.2371 7.66933C19.8109 4.24469 16.4692 2.01004 12.7595 2.00013C8.76129 1.97907 5.20619 4.54006 3.95988 8.3391C2.71356 12.1381 4.06073 16.3074 7.29441 18.6588C10.5281 21.0103 14.9096 21.0068 18.1395 18.6501L21.0195 21.5301C21.3123 21.8226 21.7867 21.8226 22.0795 21.5301C22.3719 21.2373 22.3719 20.7629 22.0795 20.4701L19.2895 17.6801C21.8956 15.04 22.6633 11.094 21.2371 7.66933ZM19.8999 14.1691C18.7024 17.0547 15.8838 18.9342 12.7595 18.9301V18.8901C8.5192 18.8847 5.07695 15.4603 5.04949 11.2201C5.04544 8.09586 6.92488 5.27717 9.81055 4.0797C12.6962 2.88223 16.0192 3.54208 18.2283 5.75127C20.4375 7.96046 21.0974 11.2834 19.8999 14.1691Z" fill="currentColor"/>
</svg>
